<svg width="600" height="155" viewBox="0 0 600 155" fill="none" xmlns="http://www.w3.org/2000/svg">
<g clip-path="url(#clip0_326_3250)">
<path d="M220.427 110.8H218.599C218.467 111.461 218.218 112.094 217.864 112.67C217.516 113.242 217.069 113.75 216.542 114.169C216.001 114.602 215.39 114.94 214.733 115.168C213.809 115.481 212.827 115.589 211.856 115.484C210.885 115.38 209.949 115.065 209.115 114.564C208.036 113.867 207.178 112.885 206.638 111.73C206.026 110.274 205.711 108.713 205.711 107.137C205.711 105.561 206.026 104 206.638 102.545C207.177 101.386 208.036 100.401 209.115 99.7009C210.142 99.0589 211.335 98.7239 212.55 98.7364C213.293 98.7286 214.032 98.8486 214.733 99.0912C216.041 99.5381 217.148 100.422 217.864 101.59C218.218 102.164 218.466 102.795 218.599 103.454H220.427C220.27 102.576 219.962 101.731 219.516 100.955C219.078 100.184 218.507 99.4941 217.829 98.9163C217.133 98.3266 216.335 97.8661 215.473 97.557C214.536 97.2219 213.546 97.0528 212.55 97.0572C210.974 97.0304 209.425 97.4633 208.097 98.3016C206.773 99.1652 205.72 100.377 205.057 101.8C204.329 103.488 203.953 105.305 203.953 107.14C203.953 108.975 204.329 110.791 205.057 112.48C205.722 113.901 206.775 115.112 208.097 115.978C209.426 116.813 210.975 117.244 212.55 117.217C213.547 117.224 214.537 117.055 215.473 116.718C217.195 116.103 218.634 114.897 219.526 113.319C219.97 112.537 220.275 111.685 220.427 110.8V110.8Z" fill="#4F2641"/>
<path d="M234.551 103.779C233.978 103.2 233.288 102.747 232.525 102.45C231.778 102.159 230.982 102.01 230.179 102.01C228.968 101.993 227.78 102.341 226.775 103.009C225.773 103.691 224.977 104.629 224.475 105.723C223.9 106.962 223.616 108.313 223.644 109.676C223.616 111.035 223.9 112.384 224.475 113.619C224.987 114.713 225.804 115.64 226.831 116.293C227.915 116.95 229.17 117.284 230.443 117.252C231.349 117.27 232.249 117.11 233.092 116.782C233.813 116.494 234.466 116.064 235.012 115.518C235.505 115.033 235.885 114.448 236.127 113.804L234.485 113.279C234.289 113.731 234.007 114.142 233.654 114.489C233.269 114.87 232.809 115.169 232.302 115.368C231.559 115.638 230.766 115.743 229.977 115.675C229.189 115.607 228.426 115.367 227.743 114.973C226.972 114.48 226.363 113.777 225.99 112.949C225.59 112.05 225.383 111.078 225.382 110.096H236.486V109.251C236.516 108.162 236.344 107.076 235.98 106.048C235.672 105.2 235.185 104.427 234.551 103.779V103.779ZM225.433 108.577C225.474 107.782 225.676 107.004 226.025 106.288C226.401 105.488 226.983 104.799 227.712 104.289C228.428 103.816 229.267 103.556 230.128 103.54C230.989 103.524 231.837 103.753 232.57 104.199C233.259 104.646 233.814 105.267 234.176 105.998C234.57 106.792 234.768 107.667 234.754 108.552L225.433 108.577Z" fill="#4F2641"/>
<path d="M248.867 104.638C249.576 105.423 249.94 106.453 249.881 107.502V116.942H251.613V107.397C251.646 106.379 251.427 105.369 250.975 104.454C250.578 103.688 249.959 103.056 249.197 102.639C248.383 102.215 247.473 102.002 246.552 102.02C245.586 101.987 244.631 102.224 243.796 102.704C243.079 103.135 242.508 103.769 242.16 104.523H242.003V102.215H240.321V116.942H242.054V107.732C242.026 106.962 242.2 106.197 242.56 105.513C242.895 104.911 243.395 104.416 244.004 104.084C244.644 103.742 245.363 103.569 246.091 103.584C246.603 103.556 247.115 103.636 247.594 103.818C248.072 103.999 248.506 104.279 248.867 104.638V104.638Z" fill="#4F2641"/>
<path d="M261.973 117.072C262.185 117.028 262.393 116.968 262.596 116.892L262.226 115.353L261.801 115.443C261.608 115.475 261.413 115.49 261.218 115.488C260.84 115.489 260.466 115.415 260.119 115.268C259.766 115.121 259.472 114.863 259.283 114.534C259.047 114.089 258.937 113.59 258.964 113.089V103.699H262.12V102.2H258.964V98.6714H257.221V102.2H254.997V103.699H257.221V113.494C257.198 114.202 257.396 114.9 257.788 115.493C258.147 116.023 258.644 116.448 259.227 116.722C260.085 117.113 261.045 117.229 261.973 117.052V117.072Z" fill="#4F2641"/>
<path d="M277.657 113.789L276.015 113.264C275.819 113.716 275.537 114.127 275.185 114.474C274.801 114.854 274.342 115.153 273.837 115.353C273.095 115.623 272.301 115.727 271.513 115.659C270.725 115.591 269.961 115.351 269.278 114.958C268.512 114.466 267.905 113.767 267.53 112.944C267.13 112.045 266.923 111.073 266.922 110.091H278.027V109.246C278.056 108.157 277.884 107.071 277.52 106.043C277.21 105.202 276.725 104.434 276.097 103.789C275.522 103.211 274.832 102.759 274.07 102.46C273.325 102.169 272.531 102.02 271.73 102.02C270.518 102.001 269.33 102.35 268.325 103.019C267.32 103.699 266.523 104.638 266.02 105.733C265.448 106.973 265.164 108.324 265.19 109.686C265.163 111.045 265.447 112.393 266.02 113.629C266.533 114.723 267.35 115.65 268.376 116.303C269.461 116.96 270.715 117.294 271.988 117.262C272.894 117.28 273.795 117.12 274.638 116.792C275.359 116.504 276.014 116.074 276.563 115.528C277.051 115.034 277.425 114.44 277.657 113.789ZM267.525 106.293C267.901 105.493 268.483 104.804 269.212 104.294C269.929 103.821 270.768 103.561 271.63 103.545C272.492 103.529 273.341 103.758 274.075 104.204C274.763 104.651 275.316 105.272 275.676 106.003C276.07 106.797 276.268 107.672 276.254 108.557H266.932C266.978 107.769 267.181 106.998 267.53 106.288L267.525 106.293Z" fill="#4F2641"/>
<path d="M287.768 101.995C286.875 101.978 285.995 102.215 285.235 102.679C284.531 103.094 283.983 103.724 283.675 104.474H283.549V102.215H281.872V116.942H283.599V107.447C283.586 106.775 283.762 106.113 284.107 105.533C284.453 104.954 284.953 104.48 285.555 104.164C286.194 103.829 286.908 103.657 287.632 103.664C287.842 103.664 288.052 103.677 288.26 103.704L288.67 103.759V102.025H288.234C288.067 101.995 287.91 101.995 287.768 101.995Z" fill="#4F2641"/>
<path d="M302.885 98.6314C303.115 98.4138 303.388 98.2459 303.687 98.1383C303.986 98.0307 304.305 97.9859 304.623 98.0067C304.861 98.0016 305.1 98.0268 305.332 98.0817L305.808 98.2166L306.315 96.7173C306.081 96.6311 305.843 96.5594 305.6 96.5024C305.23 96.4214 304.85 96.3844 304.471 96.3925C303.809 96.3899 303.154 96.5334 302.556 96.8123C301.964 97.0855 301.458 97.5121 301.092 98.0467C300.707 98.6428 300.513 99.3393 300.534 100.046V102.205H298.24V103.704H300.534V116.942H302.262V103.709H305.565V102.21H302.262V100.406C302.242 100.084 302.287 99.7615 302.394 99.4571C302.501 99.1526 302.668 98.872 302.885 98.6314V98.6314Z" fill="#4F2641"/>
<path d="M319.998 113.594C320.551 112.343 320.836 110.993 320.836 109.629C320.836 108.264 320.551 106.914 319.998 105.663C319.489 104.576 318.688 103.648 317.683 102.979C316.66 102.347 315.477 102.012 314.271 102.012C313.064 102.012 311.882 102.347 310.859 102.979C309.85 103.647 309.047 104.575 308.539 105.663C307.957 106.916 307.672 108.283 307.703 109.661C307.669 111.015 307.946 112.36 308.513 113.594C309.024 114.679 309.826 115.606 310.833 116.273C311.858 116.903 313.041 117.238 314.248 117.238C315.455 117.238 316.638 116.903 317.662 116.273C318.676 115.609 319.484 114.682 319.998 113.594V113.594ZM316.897 114.853C316.128 115.39 315.208 115.678 314.266 115.678C313.323 115.678 312.404 115.39 311.634 114.853C310.897 114.282 310.331 113.524 309.998 112.66C309.255 110.71 309.255 108.562 309.998 106.612C310.331 105.741 310.898 104.976 311.639 104.399C312.405 103.856 313.325 103.564 314.268 103.564C315.211 103.564 316.131 103.856 316.897 104.399C317.635 104.979 318.202 105.743 318.539 106.612C319.282 108.562 319.282 110.71 318.539 112.66C318.201 113.523 317.634 114.281 316.897 114.853V114.853Z" fill="#4F2641"/>
<path d="M326.416 107.447C326.4 106.775 326.575 106.111 326.921 105.531C327.266 104.951 327.768 104.478 328.372 104.164C329.011 103.829 329.725 103.657 330.449 103.664C330.659 103.664 330.868 103.677 331.077 103.704L331.487 103.759V102.025H331.051C330.874 102.025 330.717 102.025 330.575 102.025C329.682 102.007 328.802 102.245 328.042 102.709C327.338 103.123 326.79 103.754 326.482 104.504H326.355V102.245H324.678V116.942H326.406L326.416 107.447Z" fill="#4F2641"/>
<path d="M352.095 114.404H351.918L344.699 97.3071H342.602V116.932H344.314V101.09H344.466L351.178 116.932H352.83L359.542 101.09H359.699V116.932H361.411V97.3071H359.309L352.095 114.404Z" fill="#4F2641"/>
<path d="M375.596 102.979C374.584 102.325 373.396 101.987 372.187 102.01C370.977 101.989 369.788 102.325 368.772 102.974C367.765 103.641 366.963 104.57 366.457 105.658C365.876 106.911 365.59 108.278 365.621 109.656C365.593 111.019 365.878 112.371 366.457 113.609C366.966 114.694 367.766 115.621 368.772 116.288C369.796 116.918 370.979 117.253 372.187 117.253C373.394 117.253 374.577 116.918 375.601 116.288C376.608 115.616 377.409 114.684 377.916 113.594C378.469 112.343 378.755 110.993 378.755 109.628C378.755 108.264 378.469 106.914 377.916 105.663C377.406 104.576 376.603 103.648 375.596 102.979ZM376.457 112.659C376.124 113.524 375.558 114.282 374.821 114.853C374.051 115.39 373.132 115.678 372.189 115.678C371.247 115.678 370.327 115.39 369.557 114.853C368.82 114.282 368.255 113.524 367.921 112.659C367.169 110.712 367.169 108.56 367.921 106.612C368.254 105.741 368.822 104.976 369.562 104.399C370.329 103.856 371.248 103.564 372.192 103.564C373.135 103.564 374.055 103.856 374.821 104.399C375.559 104.977 376.124 105.742 376.457 106.612C377.2 108.562 377.2 110.71 376.457 112.659V112.659Z" fill="#4F2641"/>
<path d="M384.335 97.3071H382.607V116.932H384.335V97.3071Z" fill="#4F2641"/>
<path d="M391.376 116.278C392.461 116.935 393.716 117.269 394.988 117.237C395.894 117.255 396.795 117.095 397.638 116.767C398.359 116.478 399.014 116.048 399.563 115.503C400.052 115.016 400.43 114.432 400.672 113.789L399.031 113.264C398.835 113.716 398.553 114.127 398.2 114.474C397.816 114.854 397.357 115.153 396.852 115.353C396.11 115.623 395.316 115.727 394.528 115.659C393.74 115.591 392.977 115.351 392.293 114.958C391.524 114.464 390.915 113.761 390.54 112.934C390.141 112.035 389.934 111.063 389.932 110.081H401.037V109.236C401.066 108.147 400.894 107.061 400.53 106.033C400.218 105.193 399.734 104.425 399.107 103.779C398.532 103.201 397.842 102.749 397.08 102.45C396.335 102.16 395.541 102.011 394.74 102.01C393.527 101.992 392.337 102.341 391.331 103.009C390.328 103.691 389.533 104.629 389.031 105.723C388.458 106.963 388.174 108.314 388.2 109.676C388.173 111.035 388.457 112.383 389.031 113.619C389.543 114.706 390.356 115.627 391.376 116.278V116.278ZM390.545 106.283C390.922 105.483 391.503 104.794 392.232 104.284C392.949 103.811 393.789 103.551 394.651 103.535C395.513 103.519 396.361 103.748 397.096 104.194C397.782 104.642 398.334 105.263 398.696 105.993C399.09 106.787 399.288 107.662 399.274 108.547H389.953C389.998 107.763 390.2 106.995 390.545 106.288V106.283Z" fill="#4F2641"/>
<path d="M415.459 115.013C415.97 114.311 416.298 113.496 416.417 112.64H414.669C414.554 113.232 414.295 113.787 413.914 114.259C413.546 114.712 413.074 115.071 412.536 115.308C411.966 115.559 411.347 115.685 410.723 115.678C409.817 115.691 408.93 115.42 408.19 114.903C407.435 114.352 406.848 113.607 406.493 112.749C406.074 111.745 405.869 110.667 405.89 109.581C405.869 108.504 406.079 107.434 406.508 106.443C406.872 105.595 407.467 104.864 408.225 104.329C408.966 103.814 409.853 103.547 410.758 103.564C411.712 103.528 412.646 103.843 413.377 104.449C414.04 104.996 414.5 105.744 414.684 106.578H416.417C416.295 105.705 415.946 104.878 415.404 104.179C414.872 103.489 414.176 102.94 413.377 102.579C412.529 102.189 411.603 101.993 410.667 102.005C409.449 101.986 408.254 102.334 407.243 103.004C406.236 103.682 405.437 104.619 404.932 105.713C404.389 106.951 404.109 108.287 404.109 109.636C404.109 110.985 404.389 112.321 404.932 113.559C405.434 114.651 406.23 115.586 407.232 116.263C408.262 116.937 409.477 117.286 410.713 117.262C411.669 117.281 412.616 117.079 413.479 116.673C414.267 116.288 414.947 115.718 415.459 115.013V115.013Z" fill="#4F2641"/>
<path d="M431.381 116.942V102.215H429.654V111.305C429.681 112.106 429.472 112.898 429.051 113.584C428.679 114.176 428.155 114.661 427.531 114.988C426.934 115.309 426.266 115.481 425.586 115.488C425.096 115.505 424.608 115.42 424.154 115.239C423.699 115.059 423.288 114.786 422.947 114.439C422.599 114.066 422.331 113.629 422.157 113.152C421.983 112.676 421.907 112.171 421.934 111.665V102.215H420.201V111.75C420.169 112.765 420.387 113.774 420.834 114.689C421.219 115.451 421.823 116.084 422.572 116.508C423.347 116.928 424.22 117.141 425.105 117.127C426.086 117.157 427.054 116.894 427.881 116.373C428.604 115.912 429.18 115.259 429.543 114.489H429.679V116.942H431.381Z" fill="#4F2641"/>
<path d="M437.729 97.3071H436.002V116.932H437.729V97.3071Z" fill="#4F2641"/>
<path d="M448.687 116.877C449.253 116.642 449.768 116.303 450.206 115.878C450.586 115.513 450.898 115.085 451.128 114.614H451.235V116.942H452.967V106.947C452.994 106.106 452.821 105.271 452.461 104.509C452.166 103.909 451.721 103.393 451.169 103.009C450.646 102.653 450.06 102.395 449.442 102.25C448.859 102.104 448.26 102.028 447.658 102.025C446.898 102.026 446.143 102.136 445.414 102.35C444.682 102.561 444.002 102.916 443.413 103.394C442.792 103.913 442.312 104.576 442.015 105.323L443.656 105.908C443.965 105.238 444.458 104.666 445.08 104.259C445.862 103.764 446.78 103.52 447.709 103.559C448.18 103.528 448.654 103.589 449.101 103.738C449.549 103.887 449.962 104.122 450.318 104.429C450.627 104.74 450.866 105.112 451.022 105.519C451.179 105.927 451.247 106.362 451.225 106.797V107.142C451.236 107.306 451.199 107.468 451.118 107.611C451.037 107.754 450.916 107.871 450.769 107.947C450.353 108.148 449.903 108.272 449.442 108.312C448.864 108.392 448.155 108.482 447.319 108.582C446.54 108.673 445.768 108.817 445.009 109.011C444.367 109.172 443.754 109.429 443.19 109.771C442.696 110.073 442.288 110.495 442.005 110.995C441.71 111.565 441.568 112.2 441.589 112.839C441.562 113.689 441.791 114.528 442.248 115.248C442.689 115.901 443.304 116.42 444.026 116.747C444.801 117.092 445.643 117.263 446.493 117.247C447.242 117.274 447.989 117.148 448.687 116.877V116.877ZM443.342 112.879C443.322 112.351 443.491 111.833 443.818 111.415C444.188 111.003 444.662 110.694 445.191 110.521C445.888 110.275 446.61 110.108 447.344 110.021C447.658 109.987 448.008 109.943 448.393 109.886C448.783 109.836 449.173 109.776 449.568 109.701C449.91 109.635 450.249 109.549 450.581 109.446C450.817 109.384 451.036 109.274 451.225 109.121V111.25C451.233 112.02 451.045 112.78 450.678 113.459C450.313 114.123 449.774 114.677 449.117 115.063C448.392 115.478 447.564 115.687 446.726 115.668C445.853 115.7 444.995 115.441 444.29 114.933C443.98 114.692 443.732 114.383 443.568 114.029C443.403 113.675 443.326 113.288 443.342 112.899V112.879Z" fill="#4F2641"/>
<path d="M457.628 102.215V116.942H459.36V107.447C459.345 106.775 459.519 106.111 459.865 105.531C460.21 104.951 460.713 104.478 461.316 104.164C461.954 103.829 462.666 103.658 463.388 103.664C463.6 103.664 463.811 103.677 464.021 103.704L464.431 103.759V102.025H463.991C463.818 102.025 463.656 102.025 463.515 102.025C462.621 102.007 461.741 102.245 460.982 102.709C460.276 103.122 459.727 103.753 459.421 104.504H459.295V102.245L457.628 102.215Z" fill="#4F2641"/>
<path d="M485.505 98.1067C484.415 97.5383 483.192 97.2626 481.959 97.3071H475.546V116.942H477.359V109.446H481.995C483.227 109.49 484.45 109.214 485.541 108.646C486.456 108.144 487.2 107.386 487.679 106.468C488.154 105.505 488.401 104.449 488.401 103.379C488.401 102.309 488.154 101.253 487.679 100.291C487.189 99.3665 486.433 98.6064 485.505 98.1067ZM486.078 105.653C485.744 106.321 485.214 106.874 484.558 107.242C483.759 107.655 482.865 107.855 481.964 107.822H477.359V98.9163H481.919C482.827 98.8826 483.729 99.0805 484.538 99.491C485.196 99.8543 485.726 100.407 486.058 101.075C486.395 101.792 486.569 102.574 486.569 103.364C486.569 104.155 486.395 104.936 486.058 105.653H486.078Z" fill="#4F2641"/>
<path d="M499.148 102.02H498.712C498.535 102.02 498.378 102.02 498.236 102.02C497.343 102.002 496.463 102.24 495.703 102.704C494.999 103.119 494.451 103.749 494.143 104.499H494.016V102.24H492.339V116.942H494.067V107.447C494.051 106.775 494.226 106.111 494.571 105.531C494.917 104.951 495.419 104.478 496.022 104.164C496.662 103.829 497.376 103.657 498.099 103.664C498.309 103.664 498.519 103.677 498.728 103.704L499.138 103.759L499.148 102.02Z" fill="#4F2641"/>
<path d="M513.773 109.236C513.803 108.147 513.631 107.061 513.267 106.033C512.958 105.191 512.473 104.423 511.843 103.779C511.27 103.2 510.58 102.747 509.817 102.45C509.071 102.16 508.278 102.011 507.476 102.01C506.263 101.992 505.074 102.341 504.067 103.009C503.065 103.691 502.269 104.629 501.767 105.723C501.195 106.963 500.911 108.314 500.936 109.676C500.909 111.035 501.193 112.383 501.767 113.619C502.279 114.713 503.096 115.64 504.123 116.293C505.207 116.95 506.462 117.284 507.735 117.252C508.641 117.27 509.541 117.11 510.384 116.782C511.106 116.493 511.76 116.063 512.309 115.518C512.799 115.031 513.177 114.447 513.419 113.804L511.777 113.279C511.581 113.731 511.299 114.142 510.947 114.489C510.562 114.869 510.104 115.168 509.599 115.368C508.857 115.638 508.063 115.742 507.275 115.674C506.486 115.606 505.723 115.366 505.04 114.973C504.27 114.479 503.662 113.776 503.287 112.949C502.887 112.05 502.68 111.078 502.679 110.096H513.783L513.773 109.236ZM502.684 108.577C502.726 107.782 502.927 107.004 503.277 106.288C503.653 105.488 504.235 104.799 504.964 104.289C505.68 103.816 506.518 103.556 507.379 103.54C508.241 103.524 509.089 103.753 509.822 104.199C510.511 104.646 511.065 105.267 511.428 105.998C511.822 106.792 512.019 107.667 512.005 108.552L502.684 108.577Z" fill="#4F2641"/>
<path d="M526.727 115.578C527.066 115.155 527.354 114.694 527.583 114.204H527.786V116.942H529.478V97.3071H527.74V105.023H527.583C527.355 104.538 527.072 104.08 526.737 103.659C526.345 103.17 525.851 102.769 525.288 102.485C524.586 102.146 523.81 101.983 523.029 102.01C521.875 101.987 520.744 102.321 519.792 102.964C518.835 103.637 518.086 104.56 517.629 105.628C516.598 108.196 516.598 111.056 517.629 113.624C518.085 114.693 518.83 115.617 519.782 116.298C520.725 116.943 521.851 117.277 522.998 117.252C523.785 117.273 524.565 117.101 525.268 116.752C525.832 116.466 526.329 116.066 526.727 115.578V115.578ZM520.688 114.868C519.98 114.29 519.443 113.534 519.133 112.679C518.762 111.688 518.58 110.638 518.596 109.581C518.572 108.541 518.744 107.506 519.103 106.528C519.41 105.679 519.948 104.931 520.658 104.364C521.382 103.813 522.278 103.53 523.191 103.564C524.081 103.539 524.953 103.81 525.668 104.334C526.377 104.887 526.916 105.624 527.223 106.463C527.586 107.462 527.758 108.52 527.73 109.581C527.751 110.658 527.569 111.728 527.193 112.739C526.883 113.587 526.343 114.333 525.633 114.898C524.905 115.411 524.032 115.684 523.138 115.678C522.244 115.673 521.374 115.389 520.653 114.868H520.688Z" fill="#4F2641"/>
<path d="M535.359 97.2321C535.02 97.227 534.692 97.3546 534.447 97.5869C534.327 97.6986 534.231 97.8333 534.166 97.9829C534.1 98.1324 534.066 98.2936 534.066 98.4565C534.066 98.6194 534.1 98.7806 534.166 98.9301C534.231 99.0796 534.327 99.2144 534.447 99.3261C534.696 99.554 535.022 99.6808 535.362 99.6808C535.701 99.6808 536.028 99.554 536.276 99.3261C536.394 99.2133 536.488 99.0782 536.553 98.9288C536.617 98.7794 536.65 98.6188 536.65 98.4565C536.65 98.2942 536.617 98.1336 536.553 97.9842C536.488 97.8348 536.394 97.6997 536.276 97.5869C536.03 97.3538 535.7 97.2263 535.359 97.2321Z" fill="#4F2641"/>
<path d="M536.215 102.215H534.478V116.932H536.215V102.215Z" fill="#4F2641"/>
<path d="M549.873 114.259C549.505 114.712 549.032 115.071 548.495 115.308C547.924 115.559 547.306 115.685 546.681 115.678C545.767 115.696 544.87 115.425 544.123 114.903C543.369 114.353 542.783 113.608 542.431 112.749C542.01 111.746 541.805 110.667 541.828 109.581C541.806 108.504 542.014 107.434 542.441 106.443C542.807 105.596 543.401 104.865 544.159 104.329C544.899 103.815 545.786 103.547 546.691 103.564C547.65 103.527 548.587 103.844 549.321 104.454C549.984 105 550.443 105.749 550.628 106.582H552.375C552.252 105.71 551.903 104.884 551.362 104.184C550.831 103.494 550.135 102.944 549.336 102.584C548.488 102.195 547.561 101.998 546.626 102.01C545.406 101.99 544.209 102.339 543.196 103.009C542.191 103.688 541.392 104.625 540.886 105.718C540.341 106.956 540.06 108.291 540.06 109.641C540.06 110.991 540.341 112.326 540.886 113.564C541.384 114.657 542.178 115.592 543.181 116.268C544.211 116.942 545.425 117.291 546.661 117.267C547.617 117.286 548.564 117.084 549.427 116.678C550.209 116.298 550.885 115.738 551.398 115.043C551.912 114.343 552.241 113.527 552.355 112.669H550.607C550.494 113.249 550.242 113.794 549.873 114.259V114.259Z" fill="#4F2641"/>
<path d="M557.112 98.6864V102.215H554.888V103.714H557.112V113.509C557.089 114.217 557.287 114.915 557.679 115.508C558.038 116.038 558.535 116.463 559.118 116.737C559.976 117.128 560.936 117.244 561.864 117.067C562.076 117.022 562.284 116.962 562.487 116.887L562.117 115.348L561.692 115.438C561.498 115.471 561.301 115.486 561.104 115.483C560.728 115.485 560.355 115.41 560.01 115.263C559.657 115.116 559.363 114.858 559.174 114.529C558.939 114.084 558.828 113.585 558.855 113.084V103.699H562.011V102.2H558.855V98.6714L557.112 98.6864Z" fill="#4F2641"/>
<path d="M566.874 97.2321C566.533 97.2263 566.203 97.3538 565.957 97.5869C565.839 97.6997 565.745 97.8348 565.681 97.9842C565.616 98.1336 565.583 98.2942 565.583 98.4565C565.583 98.6188 565.616 98.7794 565.681 98.9288C565.745 99.0782 565.839 99.2133 565.957 99.3261C566.206 99.554 566.532 99.6808 566.872 99.6808C567.211 99.6808 567.538 99.554 567.786 99.3261C567.906 99.2144 568.002 99.0796 568.067 98.9301C568.133 98.7806 568.167 98.6194 568.167 98.4565C568.167 98.2936 568.133 98.1324 568.067 97.9829C568.002 97.8333 567.906 97.6986 567.786 97.5869C567.541 97.3546 567.214 97.227 566.874 97.2321Z" fill="#4F2641"/>
<path d="M567.745 102.215H566.008V116.932H567.745V102.215Z" fill="#4F2641"/>
<path d="M584.752 109.641C584.786 108.262 584.498 106.894 583.911 105.643C583.402 104.556 582.602 103.628 581.596 102.959C580.584 102.306 579.396 101.968 578.186 101.99C576.976 101.969 575.787 102.305 574.772 102.954C573.764 103.621 572.963 104.55 572.457 105.638C571.876 106.891 571.59 108.258 571.621 109.636C571.592 110.999 571.878 112.351 572.457 113.589C572.965 114.674 573.766 115.601 574.772 116.268C575.796 116.898 576.979 117.233 578.186 117.233C579.394 117.233 580.577 116.898 581.601 116.268C582.607 115.601 583.407 114.674 583.916 113.589C584.494 112.352 584.78 111.002 584.752 109.641V109.641ZM582.457 112.64C582.122 113.503 581.556 114.261 580.821 114.833C580.05 115.371 579.13 115.66 578.186 115.66C577.243 115.66 576.322 115.371 575.552 114.833C574.817 114.261 574.251 113.503 573.916 112.64C573.173 110.69 573.173 108.542 573.916 106.592C574.253 105.723 574.819 104.959 575.557 104.379C576.325 103.836 577.245 103.545 578.189 103.545C579.133 103.545 580.053 103.836 580.821 104.379C581.557 104.959 582.122 105.724 582.457 106.592C583.2 108.542 583.2 110.69 582.457 112.64V112.64Z" fill="#4F2641"/>
<path d="M597.482 102.639C596.666 102.215 595.755 102.002 594.833 102.02C593.867 101.988 592.912 102.225 592.077 102.704C591.36 103.137 590.791 103.77 590.441 104.523H590.289V102.215H588.607V116.942H590.334V107.732C590.306 106.962 590.481 106.197 590.841 105.513C591.173 104.909 591.674 104.413 592.285 104.084C592.925 103.742 593.644 103.569 594.372 103.584C594.879 103.56 595.385 103.642 595.858 103.824C596.331 104.005 596.76 104.283 597.118 104.638C597.823 105.425 598.187 106.453 598.131 107.502V116.942H599.858V107.397C599.89 106.38 599.673 105.37 599.225 104.454C598.838 103.693 598.231 103.062 597.482 102.639V102.639Z" fill="#4F2641"/>
<path d="M213.695 135.363C212.672 134.731 211.49 134.396 210.283 134.396C209.076 134.396 207.894 134.731 206.871 135.363C205.862 136.031 205.06 136.959 204.551 138.047C203.97 139.3 203.684 140.667 203.715 142.045C203.686 143.408 203.972 144.76 204.551 145.998C205.061 147.084 205.864 148.01 206.871 148.677C207.895 149.307 209.078 149.642 210.285 149.642C211.493 149.642 212.676 149.307 213.7 148.677C214.706 148.01 215.506 147.083 216.015 145.998C216.568 144.747 216.853 143.397 216.853 142.033C216.853 140.668 216.568 139.318 216.015 138.067C215.508 136.973 214.705 136.037 213.695 135.363V135.363ZM214.556 145.044C214.219 145.907 213.652 146.665 212.915 147.237C212.145 147.774 211.225 148.062 210.283 148.062C209.34 148.062 208.421 147.774 207.651 147.237C206.914 146.666 206.348 145.908 206.015 145.044C205.272 143.094 205.272 140.946 206.015 138.997C206.348 138.125 206.915 137.36 207.656 136.783C208.423 136.24 209.342 135.948 210.285 135.948C211.229 135.948 212.148 136.24 212.915 136.783C213.652 137.363 214.219 138.127 214.556 138.997C215.299 140.946 215.299 143.094 214.556 145.044V145.044Z" fill="#4F2641"/>
<path d="M225.736 128.782C225.074 128.779 224.42 128.922 223.822 129.201C223.229 129.475 222.723 129.901 222.358 130.436C221.973 131.032 221.779 131.728 221.8 132.435V134.594H219.51V136.093H221.8V149.326H223.533V136.083H226.836V134.584H223.533V132.78C223.488 132.13 223.707 131.491 224.141 131C224.371 130.783 224.645 130.615 224.945 130.507C225.245 130.4 225.565 130.355 225.883 130.376C226.122 130.371 226.36 130.396 226.593 130.451L227.069 130.586L227.575 129.086C227.343 128.996 227.105 128.925 226.861 128.872C226.491 128.797 226.114 128.767 225.736 128.782V128.782Z" fill="#4F2641"/>
<path d="M240.281 129.691H238.462V149.316H240.281V129.691Z" fill="#4F2641"/>
<path d="M254.136 135.023C253.32 134.599 252.409 134.386 251.486 134.404C250.522 134.371 249.569 134.608 248.736 135.088C248.018 135.519 247.448 136.153 247.099 136.908H246.942V134.599H245.26V149.316H246.988V140.116C246.968 139.343 247.151 138.579 247.52 137.897C247.854 137.296 248.355 136.8 248.964 136.468C249.604 136.126 250.323 135.954 251.051 135.968C251.558 135.944 252.064 136.026 252.537 136.208C253.01 136.389 253.439 136.667 253.796 137.022C254.505 137.807 254.87 138.837 254.81 139.886V149.316H256.537V139.781C256.569 138.764 256.352 137.754 255.904 136.838C255.51 136.073 254.894 135.442 254.136 135.023Z" fill="#4F2641"/>
<path d="M266.203 128.782C265.541 128.779 264.887 128.922 264.288 129.201C263.696 129.475 263.19 129.901 262.824 130.436C262.439 131.032 262.245 131.728 262.267 132.435V134.594H259.977V136.093H262.267V149.326H263.994V136.093H267.297V134.594H263.994V132.79C263.952 132.14 264.172 131.5 264.607 131.01C264.837 130.793 265.11 130.625 265.409 130.518C265.708 130.41 266.027 130.365 266.345 130.386C266.583 130.38 266.822 130.406 267.054 130.461L267.53 130.596L268.037 129.096C267.805 129.006 267.566 128.935 267.322 128.882C266.955 128.804 266.579 128.771 266.203 128.782Z" fill="#4F2641"/>
<path d="M272.55 129.691H270.823V149.316H272.55V129.691Z" fill="#4F2641"/>
<path d="M286.01 135.378C285.489 135.022 284.905 134.764 284.288 134.619C283.705 134.473 283.106 134.398 282.505 134.394C281.745 134.395 280.989 134.504 280.261 134.719C279.52 134.926 278.83 135.281 278.234 135.763C277.611 136.279 277.129 136.943 276.836 137.692L278.477 138.277C278.783 137.605 279.277 137.033 279.901 136.628C280.681 136.133 281.598 135.888 282.525 135.928C282.997 135.897 283.47 135.957 283.917 136.106C284.365 136.256 284.779 136.49 285.134 136.798C285.445 137.108 285.687 137.479 285.844 137.887C286.001 138.295 286.07 138.731 286.046 139.166V139.511C286.057 139.675 286.02 139.838 285.939 139.98C285.858 140.123 285.737 140.24 285.59 140.316C285.174 140.516 284.724 140.64 284.263 140.681C283.68 140.761 282.976 140.851 282.14 140.951C281.36 141.042 280.586 141.186 279.825 141.38C279.185 141.541 278.573 141.798 278.011 142.14C277.517 142.442 277.11 142.864 276.826 143.364C276.53 143.932 276.386 144.565 276.406 145.203C276.38 146.055 276.611 146.895 277.069 147.617C277.51 148.27 278.125 148.789 278.847 149.117C279.622 149.462 280.465 149.632 281.314 149.616C282.055 149.632 282.791 149.5 283.478 149.226C284.045 148.993 284.561 148.654 284.997 148.227C285.378 147.861 285.691 147.434 285.924 146.963H286.031V149.291H287.758V139.296C287.785 138.456 287.612 137.62 287.252 136.858C286.968 136.271 286.541 135.763 286.01 135.378V135.378ZM286.071 143.674C286.08 144.445 285.89 145.205 285.519 145.883C285.155 146.545 284.618 147.099 283.964 147.487C283.238 147.902 282.411 148.111 281.573 148.092C280.698 148.124 279.838 147.866 279.131 147.357C278.812 147.114 278.558 146.798 278.39 146.437C278.221 146.076 278.144 145.68 278.163 145.283C278.141 144.755 278.31 144.236 278.64 143.819C279.006 143.406 279.479 143.097 280.007 142.925C280.706 142.68 281.43 142.512 282.165 142.425L283.214 142.29C283.604 142.24 283.994 142.18 284.384 142.105C284.727 142.039 285.065 141.954 285.398 141.85C285.635 141.788 285.856 141.678 286.046 141.525L286.071 143.674Z" fill="#4F2641"/>
<path d="M306.867 134.404C305.89 134.376 304.926 134.628 304.091 135.128C303.348 135.591 302.772 136.273 302.444 137.077H302.318C302.025 136.295 301.508 135.614 300.828 135.118C300.083 134.62 299.195 134.369 298.295 134.404C297.412 134.379 296.541 134.609 295.788 135.063C295.094 135.479 294.559 136.11 294.268 136.858H294.116V134.599H292.434V149.316H294.162V139.886C294.147 139.18 294.309 138.482 294.633 137.852C294.925 137.281 295.372 136.802 295.924 136.468C296.48 136.132 297.122 135.958 297.774 135.968C298.214 135.941 298.656 136.01 299.067 136.169C299.478 136.328 299.849 136.573 300.155 136.888C300.74 137.555 301.043 138.42 301.001 139.301V149.296H302.768V139.626C302.733 138.669 303.062 137.733 303.69 137.003C304.025 136.649 304.435 136.374 304.89 136.195C305.346 136.016 305.836 135.938 306.325 135.968C306.76 135.949 307.195 136.016 307.604 136.165C308.013 136.315 308.388 136.543 308.706 136.838C309.029 137.191 309.275 137.605 309.43 138.055C309.585 138.506 309.645 138.982 309.607 139.456V149.316H311.335V139.456C311.335 137.807 310.935 136.553 310.134 135.693C309.715 135.261 309.206 134.922 308.642 134.699C308.079 134.477 307.473 134.376 306.867 134.404V134.404Z" fill="#4F2641"/>
<path d="M330.388 134.404C329.413 134.377 328.45 134.629 327.617 135.128C326.874 135.591 326.298 136.273 325.97 137.077H325.844C325.543 136.292 325.014 135.61 324.324 135.118C323.579 134.619 322.691 134.369 321.791 134.404C320.899 134.374 320.019 134.604 319.258 135.063C318.576 135.485 318.053 136.115 317.769 136.858H317.632V134.599H315.955V149.316H317.682V139.886C317.668 139.18 317.83 138.482 318.154 137.852C318.446 137.281 318.893 136.802 319.445 136.468C320.001 136.132 320.643 135.958 321.294 135.968C321.735 135.941 322.177 136.01 322.588 136.169C322.999 136.328 323.37 136.573 323.675 136.888C324.258 137.557 324.561 138.42 324.521 139.301V149.296H326.289V139.626C326.254 138.669 326.583 137.733 327.211 137.003C327.546 136.649 327.956 136.373 328.411 136.194C328.867 136.015 329.356 135.938 329.846 135.968C330.281 135.948 330.715 136.015 331.123 136.165C331.531 136.314 331.905 136.543 332.222 136.838C332.545 137.19 332.793 137.604 332.949 138.055C333.105 138.505 333.166 138.982 333.128 139.456V149.316H334.856V139.456C334.856 137.807 334.454 136.553 333.65 135.693C333.232 135.26 332.724 134.921 332.161 134.699C331.598 134.476 330.993 134.376 330.388 134.404V134.404Z" fill="#4F2641"/>
<path d="M348.336 135.378C347.815 135.022 347.231 134.764 346.614 134.619C346.031 134.473 345.432 134.398 344.831 134.394C344.071 134.395 343.315 134.504 342.586 134.719C341.845 134.926 341.156 135.281 340.56 135.763C339.936 136.279 339.455 136.943 339.162 137.692L340.803 138.277C341.109 137.605 341.603 137.033 342.227 136.628C343.009 136.132 343.927 135.887 344.856 135.928C345.327 135.897 345.799 135.958 346.246 136.107C346.693 136.256 347.105 136.491 347.46 136.798C347.771 137.108 348.012 137.479 348.169 137.887C348.326 138.295 348.395 138.731 348.372 139.166V139.511C348.383 139.675 348.346 139.838 348.265 139.98C348.184 140.123 348.063 140.24 347.916 140.316C347.5 140.516 347.05 140.64 346.589 140.681C346.006 140.761 345.302 140.851 344.466 140.951C343.685 141.042 342.912 141.186 342.151 141.38C341.511 141.541 340.899 141.798 340.337 142.14C339.843 142.442 339.435 142.864 339.152 143.364C338.856 143.932 338.711 144.565 338.731 145.203C338.705 146.055 338.936 146.895 339.395 147.617C339.836 148.27 340.451 148.789 341.173 149.117C341.948 149.462 342.79 149.632 343.64 149.616C344.381 149.632 345.117 149.5 345.803 149.226C346.371 148.993 346.887 148.654 347.323 148.227C347.704 147.861 348.017 147.434 348.25 146.963H348.357V149.291H350.084V139.296C350.111 138.456 349.937 137.62 349.577 136.858C349.294 136.271 348.867 135.763 348.336 135.378V135.378ZM348.397 143.674C348.406 144.445 348.216 145.205 347.845 145.883C347.482 146.546 346.945 147.101 346.29 147.487C345.564 147.902 344.737 148.111 343.899 148.092C343.026 148.125 342.167 147.866 341.462 147.357C341.142 147.115 340.886 146.8 340.716 146.439C340.547 146.077 340.469 145.681 340.489 145.283C340.467 144.755 340.636 144.236 340.965 143.819C341.332 143.406 341.804 143.097 342.333 142.925C343.032 142.68 343.755 142.512 344.491 142.425L345.54 142.29C345.93 142.24 346.32 142.18 346.71 142.105C347.061 142.04 347.408 141.955 347.749 141.85C347.986 141.788 348.207 141.678 348.397 141.525V143.674Z" fill="#4F2641"/>
<path d="M360.332 147.827C360.14 147.859 359.945 147.875 359.75 147.872C359.372 147.874 358.998 147.799 358.65 147.652C358.298 147.503 358.005 147.245 357.815 146.918C357.579 146.473 357.469 145.974 357.495 145.473V136.083H360.651V134.584H357.495V131.055H355.758V134.584H353.529V136.083H355.758V145.878C355.729 146.557 355.907 147.229 356.268 147.808C356.629 148.386 357.157 148.846 357.784 149.127C358.64 149.517 359.599 149.633 360.525 149.456C360.737 149.412 360.945 149.352 361.148 149.276L360.778 147.737L360.332 147.827Z" fill="#4F2641"/>
<path d="M373.686 135.363C372.663 134.731 371.481 134.396 370.274 134.396C369.067 134.396 367.885 134.731 366.862 135.363C365.854 136.031 365.051 136.959 364.542 138.047C363.961 139.3 363.675 140.667 363.706 142.045C363.678 143.408 363.963 144.76 364.542 145.998C365.053 147.084 365.855 148.01 366.862 148.677C367.886 149.307 369.069 149.642 370.277 149.642C371.484 149.642 372.667 149.307 373.691 148.677C374.697 148.01 375.498 147.083 376.006 145.998C376.559 144.747 376.845 143.397 376.845 142.033C376.845 140.668 376.559 139.318 376.006 138.067C375.499 136.973 374.697 136.037 373.686 135.363V135.363ZM374.542 145.044C374.209 145.908 373.643 146.666 372.906 147.237C372.136 147.774 371.217 148.062 370.274 148.062C369.331 148.062 368.412 147.774 367.642 147.237C366.905 146.666 366.34 145.908 366.006 145.044C365.263 143.094 365.263 140.946 366.006 138.997C366.339 138.125 366.907 137.36 367.647 136.783C368.414 136.24 369.333 135.948 370.277 135.948C371.22 135.948 372.139 136.24 372.906 136.783C373.644 137.362 374.209 138.127 374.542 138.997C375.294 140.944 375.294 143.096 374.542 145.044V145.044Z" fill="#4F2641"/>
<path d="M386.584 134.379C385.69 134.361 384.811 134.599 384.051 135.063C383.345 135.476 382.797 136.107 382.491 136.858H382.364V134.599H380.687V149.316H382.415V139.821C382.399 139.149 382.574 138.485 382.919 137.905C383.264 137.325 383.767 136.852 384.37 136.538C385.009 136.203 385.723 136.031 386.447 136.038C386.657 136.038 386.867 136.051 387.075 136.078L387.486 136.133V134.399H387.045C386.883 134.379 386.726 134.379 386.584 134.379Z" fill="#4F2641"/>
<path d="M396.214 147.063H396.077L391.65 134.599H389.775L395.262 149.461L394.72 150.961C394.518 151.57 394.194 152.132 393.767 152.615C393.445 152.957 393.011 153.174 392.541 153.23C392.01 153.267 391.476 153.199 390.971 153.03L390.5 154.529C390.728 154.624 390.966 154.694 391.209 154.739C391.525 154.806 391.848 154.84 392.172 154.839C392.76 154.846 393.342 154.726 393.879 154.489C394.404 154.241 394.863 153.877 395.221 153.424C395.646 152.889 395.978 152.288 396.204 151.645L402.521 134.599H400.642L396.214 147.063Z" fill="#4F2641"/>
<path d="M425.313 139.931C424.76 139.55 424.115 139.32 423.443 139.266V139.111C424.023 138.956 424.568 138.693 425.049 138.337C425.538 137.965 425.928 137.482 426.184 136.928C426.479 136.267 426.623 135.55 426.604 134.829C426.62 133.908 426.395 132.999 425.951 132.19C425.5 131.404 424.823 130.767 424.005 130.361C422.995 129.884 421.883 129.654 420.763 129.691H414.051V149.316H421.143C422.361 149.364 423.574 149.136 424.689 148.652C425.549 148.264 426.267 147.626 426.746 146.823C427.201 146.011 427.431 145.096 427.415 144.169C427.44 143.278 427.239 142.396 426.832 141.6C426.474 140.928 425.952 140.354 425.313 139.931ZM415.87 131.3H420.763C422.114 131.3 423.138 131.633 423.833 132.3C424.173 132.63 424.439 133.027 424.614 133.466C424.788 133.904 424.867 134.373 424.846 134.844C424.855 135.518 424.68 136.183 424.34 136.768C424.012 137.327 423.533 137.785 422.957 138.092C422.326 138.43 421.618 138.602 420.9 138.592H415.834L415.87 131.3ZM424.522 146.703C423.789 147.369 422.655 147.702 421.118 147.702H415.87V140.146H421.209C422.022 140.127 422.827 140.311 423.55 140.681C424.192 141.016 424.728 141.52 425.097 142.138C425.466 142.756 425.655 143.462 425.642 144.179C425.65 144.654 425.554 145.126 425.36 145.561C425.167 145.997 424.881 146.386 424.522 146.703Z" fill="#4F2641"/>
<path d="M440.667 135.363C439.645 134.731 438.462 134.396 437.255 134.396C436.049 134.396 434.866 134.731 433.844 135.363C432.835 136.031 432.032 136.959 431.523 138.047C430.942 139.3 430.656 140.667 430.687 142.045C430.659 143.408 430.945 144.76 431.523 145.998C432.034 147.084 432.836 148.01 433.844 148.677C434.868 149.307 436.051 149.642 437.258 149.642C438.465 149.642 439.648 149.307 440.672 148.677C441.678 148.01 442.479 147.083 442.987 145.998C443.54 144.747 443.826 143.397 443.826 142.033C443.826 140.668 443.54 139.318 442.987 138.067C442.481 136.973 441.678 136.037 440.667 135.363V135.363ZM441.529 145.044C441.191 145.907 440.624 146.665 439.887 147.237C439.117 147.774 438.198 148.062 437.255 148.062C436.313 148.062 435.393 147.774 434.624 147.237C433.887 146.666 433.321 145.908 432.987 145.044C432.245 143.094 432.245 140.946 432.987 138.997C433.328 138.122 433.904 137.357 434.654 136.783C435.42 136.24 436.34 135.948 437.283 135.948C438.227 135.948 439.146 136.24 439.912 136.783C440.65 137.363 441.217 138.127 441.554 138.997C442.297 140.946 442.297 143.094 441.554 145.044H441.529Z" fill="#4F2641"/>
<path d="M460.46 146.713H460.323L456.828 134.599H454.989L451.463 146.738H451.336L447.805 134.599H445.976L450.485 149.316H452.273L455.809 137.252H455.992L459.528 149.316H461.316L465.825 134.599H463.996L460.46 146.713Z" fill="#4F2641"/>
<path d="M478.879 136.163C478.307 135.583 477.616 135.13 476.853 134.834C476.109 134.541 475.314 134.391 474.513 134.394C473.301 134.377 472.113 134.726 471.108 135.393C470.104 136.075 469.307 137.013 468.803 138.107C468.233 139.347 467.95 140.698 467.978 142.06C467.949 143.419 468.231 144.767 468.803 146.003C469.319 147.096 470.137 148.023 471.164 148.677C472.249 149.334 473.503 149.668 474.776 149.636C475.68 149.654 476.579 149.494 477.42 149.167C478.143 148.879 478.798 148.449 479.345 147.902C479.838 147.417 480.218 146.832 480.46 146.188L478.819 145.663C478.623 146.115 478.341 146.526 477.988 146.873C477.602 147.253 477.141 147.552 476.635 147.752C475.893 148.022 475.099 148.127 474.311 148.059C473.522 147.991 472.759 147.751 472.076 147.357C471.305 146.864 470.696 146.161 470.323 145.333C469.919 144.435 469.711 143.463 469.715 142.48H480.82V141.635C480.849 140.546 480.677 139.461 480.313 138.432C480.002 137.585 479.513 136.812 478.879 136.163ZM469.761 140.961C469.806 140.166 470.009 139.389 470.359 138.672C470.731 137.871 471.311 137.181 472.04 136.673C472.757 136.2 473.597 135.94 474.459 135.924C475.321 135.908 476.169 136.137 476.904 136.583C477.591 137.03 478.144 137.651 478.504 138.382C478.902 139.175 479.102 140.051 479.087 140.936L469.761 140.961Z" fill="#4F2641"/>
<path d="M486.407 129.691H484.68V149.316H486.407V129.691Z" fill="#4F2641"/>
<path d="M510.187 130.861C508.7 130.047 507.018 129.643 505.318 129.691H499.138V149.316H504.969C506.741 149.37 508.497 148.963 510.06 148.137C511.457 147.36 512.576 146.176 513.267 144.749C513.991 143.085 514.367 141.294 514.371 139.484C514.376 137.673 514.008 135.881 513.292 134.214C512.625 132.812 511.542 131.642 510.187 130.861ZM511.747 143.854C511.207 145.049 510.3 146.046 509.153 146.703C507.837 147.408 506.354 147.754 504.857 147.702H500.957V131.3H505.212C506.63 131.26 508.032 131.606 509.265 132.3C510.369 132.957 511.238 133.937 511.752 135.103C512.344 136.486 512.634 137.976 512.603 139.476C512.642 140.983 512.35 142.48 511.747 143.864V143.854Z" fill="#4F2641"/>
<path d="M520.212 134.599H518.475V149.316H520.212V134.599Z" fill="#4F2641"/>
<path d="M519.361 129.616C519.193 129.612 519.025 129.641 518.868 129.702C518.712 129.763 518.569 129.854 518.449 129.971C518.329 130.083 518.233 130.217 518.168 130.367C518.102 130.516 518.068 130.678 518.068 130.841C518.068 131.003 518.102 131.165 518.168 131.314C518.233 131.464 518.329 131.598 518.449 131.71C518.57 131.826 518.712 131.917 518.869 131.978C519.026 132.039 519.193 132.068 519.361 132.065C519.7 132.07 520.028 131.942 520.273 131.71C520.393 131.598 520.489 131.464 520.554 131.314C520.62 131.165 520.654 131.003 520.654 130.841C520.654 130.678 520.62 130.516 520.554 130.367C520.489 130.217 520.393 130.083 520.273 129.971C520.152 129.855 520.01 129.764 519.853 129.703C519.697 129.642 519.529 129.613 519.361 129.616V129.616Z" fill="#4F2641"/>
<path d="M531.342 141.46L529.088 140.911C528.338 140.764 527.635 140.444 527.036 139.976C526.812 139.786 526.633 139.548 526.514 139.281C526.395 139.014 526.338 138.724 526.347 138.432C526.343 138.071 526.43 137.714 526.6 137.394C526.769 137.074 527.017 136.801 527.32 136.598C528.049 136.102 528.922 135.853 529.807 135.888C530.389 135.872 530.969 135.981 531.504 136.208C531.937 136.401 532.317 136.692 532.613 137.058C532.901 137.418 533.125 137.823 533.277 138.257L534.858 137.817C534.543 136.823 533.923 135.95 533.085 135.318C532.125 134.662 530.972 134.339 529.807 134.399C528.885 134.384 527.972 134.565 527.127 134.929C526.392 135.24 525.755 135.741 525.283 136.378C524.831 137.003 524.595 137.754 524.609 138.522C524.583 139.434 524.918 140.321 525.541 140.996C526.334 141.75 527.335 142.256 528.419 142.45L530.856 143.025C531.538 143.15 532.172 143.462 532.684 143.924C532.882 144.121 533.037 144.356 533.14 144.613C533.244 144.871 533.294 145.146 533.287 145.423C533.29 145.799 533.199 146.17 533.022 146.503C532.845 146.835 532.588 147.12 532.274 147.332C531.469 147.878 530.504 148.147 529.528 148.097C528.652 148.139 527.786 147.903 527.056 147.422C526.398 146.934 525.948 146.221 525.795 145.423L524.133 145.828C524.342 146.965 524.995 147.975 525.952 148.642C527.022 149.324 528.28 149.663 529.554 149.611C530.546 149.634 531.533 149.446 532.446 149.062C533.22 148.744 533.892 148.226 534.392 147.562C534.858 146.917 535.103 146.141 535.091 145.348C535.106 144.899 535.031 144.45 534.87 144.029C534.709 143.608 534.466 143.223 534.153 142.895C533.376 142.158 532.4 141.66 531.342 141.46V141.46Z" fill="#4F2641"/>
<path d="M549.073 136.163C548.5 135.583 547.809 135.13 547.046 134.834C546.302 134.541 545.507 134.391 544.706 134.394C543.494 134.377 542.306 134.726 541.301 135.393C540.298 136.073 539.502 137.012 539.001 138.107C538.427 139.346 538.143 140.697 538.171 142.06C538.142 143.419 538.426 144.768 539.001 146.003C539.514 147.097 540.331 148.024 541.357 148.677C542.442 149.334 543.696 149.668 544.969 149.636C545.875 149.654 546.776 149.494 547.619 149.167C548.339 148.878 548.992 148.448 549.539 147.902C550.031 147.417 550.411 146.832 550.653 146.188L549.012 145.663C548.816 146.115 548.534 146.526 548.181 146.873C547.795 147.253 547.335 147.552 546.828 147.752C546.086 148.022 545.292 148.127 544.504 148.059C543.715 147.991 542.952 147.751 542.269 147.357C541.498 146.864 540.889 146.161 540.516 145.333C540.114 144.434 539.907 143.462 539.908 142.48H551.013V141.635C551.042 140.546 550.87 139.461 550.506 138.432C550.195 137.585 549.706 136.812 549.073 136.163V136.163ZM539.954 140.961C539.999 140.166 540.202 139.389 540.552 138.672C540.926 137.872 541.506 137.183 542.234 136.673C542.95 136.2 543.79 135.94 544.652 135.924C545.514 135.908 546.362 136.137 547.097 136.583C547.785 137.031 548.339 137.652 548.703 138.382C549.096 139.176 549.294 140.051 549.28 140.936L539.954 140.961Z" fill="#4F2641"/>
<path d="M563.713 135.378C563.192 135.022 562.608 134.764 561.991 134.619C561.408 134.473 560.809 134.398 560.207 134.394C559.447 134.395 558.692 134.504 557.963 134.719C557.222 134.925 556.532 135.281 555.937 135.763C555.313 136.279 554.832 136.943 554.539 137.692L556.18 138.277C556.486 137.605 556.98 137.033 557.604 136.628C558.384 136.133 559.301 135.888 560.228 135.928C560.699 135.897 561.172 135.957 561.62 136.106C562.068 136.256 562.481 136.49 562.837 136.798C563.148 137.108 563.389 137.479 563.546 137.887C563.703 138.295 563.772 138.731 563.749 139.166V139.511C563.76 139.675 563.723 139.838 563.642 139.98C563.561 140.123 563.439 140.24 563.293 140.316C562.876 140.516 562.427 140.64 561.965 140.681C561.383 140.761 560.679 140.851 559.843 140.951C559.062 141.042 558.289 141.186 557.528 141.38C556.888 141.541 556.276 141.798 555.714 142.14C555.22 142.442 554.812 142.864 554.529 143.364C554.233 143.932 554.088 144.565 554.108 145.203C554.082 146.055 554.313 146.895 554.772 147.617C555.212 148.27 555.828 148.789 556.55 149.117C557.325 149.462 558.167 149.632 559.017 149.616C559.757 149.632 560.493 149.5 561.18 149.226C561.747 148.993 562.263 148.654 562.7 148.227C563.081 147.863 563.393 147.435 563.622 146.963H563.733V149.291H565.461V139.296C565.488 138.456 565.314 137.62 564.954 136.858C564.67 136.271 564.244 135.763 563.713 135.378ZM563.774 143.674C563.781 144.445 563.591 145.204 563.222 145.883C562.857 146.547 562.318 147.101 561.661 147.487C560.938 147.903 560.112 148.112 559.275 148.092C558.401 148.124 557.541 147.866 556.834 147.357C556.515 147.114 556.261 146.798 556.092 146.437C555.924 146.076 555.846 145.68 555.866 145.283C555.844 144.755 556.012 144.236 556.342 143.819C556.709 143.406 557.181 143.097 557.71 142.925C558.408 142.68 559.132 142.512 559.868 142.425L560.917 142.29C561.307 142.24 561.697 142.18 562.087 142.105C562.429 142.039 562.768 141.954 563.1 141.85C563.337 141.788 563.558 141.678 563.749 141.525L563.774 143.674Z" fill="#4F2641"/>
<path d="M576.641 141.46L574.387 140.911C573.636 140.764 572.931 140.444 572.33 139.976C572.112 139.784 571.94 139.547 571.825 139.282C571.711 139.017 571.656 138.73 571.666 138.442C571.663 138.081 571.749 137.724 571.919 137.404C572.089 137.084 572.336 136.811 572.639 136.608C573.368 136.112 574.241 135.862 575.126 135.898C575.707 135.882 576.285 135.991 576.818 136.218C577.252 136.411 577.634 136.702 577.933 137.067C578.219 137.428 578.441 137.834 578.592 138.267L580.177 137.827C579.861 136.834 579.241 135.962 578.404 135.328C577.444 134.673 576.292 134.35 575.126 134.409C574.205 134.393 573.292 134.572 572.447 134.934C571.712 135.247 571.076 135.747 570.603 136.383C570.154 137.009 569.92 137.76 569.934 138.527C569.905 139.44 570.24 140.328 570.866 141.001C571.657 141.754 572.656 142.26 573.738 142.455L576.18 143.03C576.862 143.154 577.494 143.466 578.004 143.929C578.201 144.126 578.356 144.361 578.46 144.618C578.563 144.876 578.613 145.151 578.607 145.428C578.608 145.804 578.517 146.174 578.34 146.507C578.164 146.84 577.907 147.125 577.594 147.337C576.786 147.883 575.82 148.151 574.843 148.102C573.967 148.144 573.1 147.908 572.371 147.427C571.716 146.937 571.268 146.225 571.114 145.428L569.453 145.833C569.66 146.969 570.311 147.98 571.266 148.647C572.338 149.33 573.598 149.669 574.873 149.616C575.864 149.638 576.849 149.451 577.761 149.067C578.536 148.75 579.211 148.232 579.711 147.567C580.178 146.922 580.423 146.146 580.41 145.353C580.438 144.446 580.101 143.564 579.473 142.9C578.691 142.158 577.707 141.658 576.641 141.46V141.46Z" fill="#4F2641"/>
<path d="M594.372 136.163C593.797 135.586 593.107 135.133 592.345 134.834C591.601 134.542 590.806 134.392 590.005 134.394C588.793 134.375 587.605 134.724 586.601 135.393C585.596 136.073 584.798 137.012 584.296 138.107C583.723 139.347 583.439 140.698 583.465 142.06C583.438 143.419 583.722 144.767 584.296 146.003C584.808 147.097 585.625 148.024 586.651 148.677C587.736 149.334 588.991 149.668 590.263 149.636C591.169 149.654 592.07 149.494 592.913 149.167C593.634 148.877 594.289 148.447 594.838 147.902C595.329 147.417 595.707 146.832 595.947 146.188L594.306 145.663C594.11 146.115 593.828 146.526 593.475 146.873C593.091 147.253 592.633 147.552 592.128 147.752C591.385 148.022 590.591 148.126 589.803 148.058C589.015 147.99 588.252 147.751 587.568 147.357C586.799 146.863 586.19 146.16 585.815 145.333C585.416 144.434 585.209 143.462 585.208 142.48H596.312V141.635C596.341 140.546 596.17 139.461 595.805 138.432C595.494 137.585 595.006 136.812 594.372 136.163V136.163ZM585.253 140.961C585.295 140.166 585.496 139.388 585.846 138.672C586.222 137.872 586.804 137.183 587.533 136.673C588.25 136.2 589.089 135.94 589.951 135.924C590.813 135.908 591.662 136.137 592.396 136.583C593.082 137.031 593.635 137.652 593.997 138.382C594.391 139.176 594.589 140.051 594.574 140.936L585.253 140.961Z" fill="#4F2641"/>
<path d="M215.974 45.5026H232.337C237.214 45.5026 241.517 44.583 245.245 42.7439C248.84 41.0281 251.845 38.3085 253.888 34.9228C255.914 31.5511 256.927 27.6231 256.927 23.1386C256.927 18.6541 255.914 14.7277 253.888 11.3594C251.845 7.97365 248.84 5.25409 245.245 3.53824C241.53 1.69915 237.228 0.779602 232.337 0.779602H204.282V70.965H215.974V45.5026ZM215.974 10.8047H231.425C235.627 10.8047 238.947 11.9075 241.385 14.113C243.823 16.3186 245.043 19.3271 245.043 23.1386C245.043 26.8867 243.806 29.8853 241.334 32.1342C238.862 34.3831 235.525 35.4992 231.324 35.4825H215.974V10.8047Z" fill="#4F2641"/>
<path d="M277.571 45.5026H293.427L306.948 70.99H319.957L304.916 42.9788C308.996 41.605 312.522 38.9778 314.977 35.4825C317.51 31.8614 318.824 27.5469 318.736 23.1486C318.736 18.6708 317.703 14.7444 315.636 11.3694C313.566 7.98729 310.549 5.26773 306.948 3.53824C303.233 1.69915 298.896 0.779602 293.939 0.779602H265.884V70.965H277.571V45.5026ZM277.571 10.8047H293.022C297.223 10.8047 300.56 11.9258 303.032 14.168C305.504 16.4102 306.742 19.4004 306.745 23.1386C306.745 26.8867 305.507 29.8853 303.032 32.1342C300.556 34.383 297.22 35.4992 293.022 35.4825H277.571V10.8047Z" fill="#4F2641"/>
<path d="M377.085 60.7451H341.102V40.3851H369.765V30.46H341.102V11.0046H375.864V0.779602H329.41V70.97H377.085V60.7451Z" fill="#4F2641"/>
<path d="M428.317 66.5622C433.623 63.7301 437.97 59.4243 440.819 54.1783C443.734 48.8476 445.191 42.7473 445.191 35.8773C445.191 28.9241 443.734 22.8071 440.819 17.5264C437.961 12.2999 433.615 8.01256 428.317 5.19243C422.893 2.24722 416.562 0.776276 409.325 0.779608H386.64V70.965H409.325C416.565 70.965 422.896 69.4974 428.317 66.5622ZM398.327 10.8047H409.325C416.984 10.8047 422.881 13.0619 427.015 17.5763C431.149 22.0908 433.215 28.1911 433.215 35.8773C433.215 43.5635 431.149 49.6639 427.015 54.1783C422.881 58.6928 416.984 60.9566 409.325 60.97H398.327V10.8047Z" fill="#4F2641"/>
<path d="M467.142 0.779602H455.455V70.975H467.142V0.779602Z" fill="#4F2641"/>
<path d="M530.167 47.1068C529.012 51.5846 526.793 55.0945 523.51 57.6366C520.227 60.1787 516.144 61.4564 511.261 61.4697C507.153 61.5553 503.115 60.42 499.67 58.2113C496.295 55.9747 493.647 52.8229 492.046 49.1358C490.222 44.9599 489.323 40.4484 489.406 35.9023C489.406 30.8848 490.286 26.4553 492.046 22.6139C493.66 18.9478 496.306 15.8153 499.67 13.5883C503.116 11.3819 507.154 10.2468 511.261 10.3299C516.137 10.3299 520.238 11.5993 523.561 14.138C526.884 16.6768 529.12 20.1867 530.268 24.6679H541.955C541.305 20.024 539.527 15.6039 536.773 11.7842C534.07 8.08157 530.446 5.12809 526.251 3.20842C521.71 1.15631 516.761 0.131812 511.767 0.209901C504.857 0.209901 498.809 1.6975 493.621 4.6727C488.475 7.6132 484.309 11.9685 481.63 17.2065C478.814 22.5905 477.407 28.8258 477.41 35.9123C477.41 43.0621 478.817 49.329 481.63 54.7131C484.296 59.9496 488.467 64.2952 493.621 67.2069C498.809 70.1521 504.857 71.623 511.767 71.6197C516.779 71.7075 521.746 70.6827 526.301 68.6212C530.459 66.7091 534.048 63.7729 536.722 60.0954C539.464 56.2553 541.225 51.818 541.854 47.1618L530.167 47.1068Z" fill="#4F2641"/>
<path d="M544.397 0.779602V11.0046H566.352V70.97H578.044V11.0046H600V0.779602H544.397Z" fill="#4F2641"/>
<path d="M135.918 0H81.1354C75.7951 0.00865049 70.5117 1.08224 65.6026 3.15627C60.6935 5.2303 56.2601 8.26195 52.5688 12.0691C44.9991 19.6837 40.7608 29.9248 40.7653 40.59V137.003C40.7648 138.883 40.1068 140.707 38.9024 142.165C37.698 143.623 36.0208 144.627 34.1536 145.007C32.2863 145.388 30.3432 145.121 28.6518 144.253C26.9604 143.385 25.6242 141.968 24.8685 140.241C23.3084 136.677 20.9309 133.519 17.9231 131.015L17.8826 130.98C23.1613 126.653 28.4045 121.445 28.4045 112.22C28.4045 102.994 23.1613 97.7868 17.8776 93.454C23.0042 89.1961 27.9536 84.0236 27.9536 75.063C27.9536 66.1024 23.0042 60.93 17.8776 56.6721C23.1613 52.3442 28.4045 47.1368 28.4045 37.9113C28.4045 28.6859 23.1613 23.4884 17.8776 19.1556C23.0042 14.9027 27.9536 9.72521 27.9536 0.764623H23.3031C23.3031 8.14599 19.2504 12.109 14.1845 16.197C9.15408 12.109 5.0659 8.14599 5.0659 0.764623H0.450865C0.450865 9.72521 5.40025 14.9027 10.5269 19.1556C5.2432 23.4884 0 28.6959 0 37.9163C0 47.1368 5.2432 52.3492 10.5269 56.6771C5.40025 60.935 0.450865 66.1074 0.450865 75.068C0.450865 84.0286 5.40025 89.2011 10.5269 93.459C5.2432 97.7868 0 102.994 0 112.22C0 121.445 5.2432 126.658 10.5269 130.985C5.40025 135.238 0.450865 140.431 0.450865 149.376H5.10643C5.10643 142 9.15914 138.032 14.225 133.944C14.4631 134.144 14.7316 134.334 14.9495 134.534C17.4035 136.575 19.3425 139.152 20.6131 142.06C21.7987 144.75 23.8864 146.955 26.5257 148.306C29.1649 149.656 32.1949 150.07 35.1066 149.476C38.0184 148.883 40.6344 147.319 42.5154 145.048C44.3964 142.776 45.4277 139.936 45.436 137.003V40.59C45.4357 31.1227 49.1989 22.0328 55.9174 15.2725C59.1755 11.9095 63.0886 9.23046 67.4221 7.39612C71.7555 5.56179 76.4199 4.60995 81.1354 4.59773H135.918C141.229 4.60789 146.484 5.6754 151.367 7.73632C156.251 9.79725 160.662 12.8092 164.338 16.5918C171.909 24.1908 176.147 34.4226 176.136 45.0778V56.4722C176.124 66.9911 171.883 77.0758 164.343 84.5138C156.804 91.9518 146.581 96.1357 135.918 96.1476H106.536C102.057 96.1529 97.7636 97.9107 94.5972 101.035C91.4307 104.16 89.6502 108.396 89.6461 112.814V139.331C89.6461 144.999 94.3118 149.786 99.8337 149.786C105.355 149.786 110.026 144.999 110.026 139.331V131.98C110.072 130.427 110.729 128.952 111.859 127.869C112.989 126.786 114.502 126.181 116.077 126.181C117.653 126.181 119.166 126.786 120.296 127.869C121.426 128.952 122.083 130.427 122.129 131.98V140.381C122.129 145.473 126.303 149.776 131.247 149.776C136.192 149.776 140.366 145.473 140.366 140.381V129.041C140.366 126.444 141.412 123.952 143.274 122.115C145.136 120.278 147.662 119.246 150.295 119.246C152.928 119.246 155.454 120.278 157.316 122.115C159.178 123.952 160.224 126.444 160.224 129.041V139.901C160.224 142.419 161.238 144.835 163.043 146.615C164.848 148.396 167.297 149.396 169.849 149.396H180.847V144.799H169.799C168.488 144.797 167.231 144.283 166.304 143.369C165.377 142.454 164.856 141.214 164.854 139.921V129.041C164.891 127.129 164.54 125.229 163.823 123.452C163.106 121.675 162.038 120.056 160.679 118.691C159.321 117.326 157.701 116.242 155.913 115.502C154.125 114.762 152.206 114.38 150.267 114.38C148.328 114.38 146.409 114.762 144.621 115.502C142.833 116.242 141.213 117.326 139.855 118.691C138.497 120.056 137.428 121.675 136.711 123.452C135.994 125.229 135.644 127.129 135.68 129.041V140.381C135.68 142.94 133.598 145.178 131.222 145.178C128.846 145.178 126.769 142.94 126.769 140.381V131.98C126.708 129.217 125.553 126.588 123.551 124.655C121.548 122.722 118.858 121.64 116.057 121.64C113.256 121.64 110.566 122.722 108.564 124.655C106.562 126.588 105.406 129.217 105.345 131.98V139.321C105.345 142.44 102.762 145.178 99.8134 145.178C96.865 145.178 94.2814 142.44 94.2814 139.321V112.804C94.2855 109.604 95.5755 106.536 97.8689 104.273C100.162 102.01 103.272 100.736 106.516 100.73H135.898C147.798 100.724 159.209 96.0599 167.626 87.7623C176.044 79.4647 180.781 68.2114 180.797 56.4722V45.0378C180.807 33.1926 176.096 21.8182 167.681 13.3684C163.572 9.14544 158.64 5.78462 153.182 3.48746C147.724 1.1903 141.852 0.00410285 135.918 0V0ZM4.66063 37.9163C4.66063 30.3201 8.96157 26.342 14.1997 22.1191C19.4429 26.342 23.7439 30.3201 23.7439 37.9163C23.7439 45.5126 19.4429 49.4756 14.1845 53.7135C8.96157 49.4756 4.66063 45.5126 4.66063 37.9163ZM5.10643 75.068C5.10643 67.6867 9.15914 63.7236 14.225 59.6356C19.2504 63.7236 23.3031 67.6867 23.3031 75.068C23.3031 82.4494 19.2504 86.4124 14.1845 90.5004C9.16928 86.4124 5.10643 82.4594 5.10643 75.068ZM14.225 128.042C8.96157 123.799 4.66063 119.821 4.66063 112.22C4.66063 104.618 8.96157 100.64 14.1845 96.4225C19.4277 100.64 23.7287 104.623 23.7287 112.22C23.7287 119.816 19.4429 123.799 14.1845 128.017L14.225 128.042Z" fill="#4F2641"/>
<path d="M135.918 84.6483C152.104 84.6483 164.49 71.6547 164.49 55.6976V45.0378C164.49 29.0757 152.104 16.0871 135.918 16.0871H81.1355C74.5553 16.0976 68.2477 18.681 63.5949 23.2711C58.942 27.8612 56.3233 34.0836 56.3126 40.575V149.376H60.9732V40.59C60.9786 35.3124 63.1061 30.2525 66.889 26.5207C70.6718 22.7889 75.8009 20.6901 81.1507 20.6848H135.918C149.53 20.6848 159.829 31.6094 159.829 45.0378V55.6976C159.829 69.1259 149.53 80.0506 135.918 80.0506H106.536C88.6583 80.0506 72.5589 95.1631 72.5589 112.804V149.376H77.2195V112.804C77.2195 97.7019 91.2267 84.6483 106.536 84.6483H135.918Z" fill="#4F2641"/>
</g>
<defs>
<clipPath id="clip0_326_3250">
<rect width="600" height="154.839" fill="white"/>
</clipPath>
</defs>
</svg>
