<svg width="300" height="254" viewBox="0 0 300 254" fill="none" xmlns="http://www.w3.org/2000/svg">
<g clip-path="url(#clip0_326_3332)">
<path d="M176.756 170.728H225.486C245.228 170.704 264.154 162.791 278.113 148.726C292.072 134.66 299.925 115.59 299.948 95.6986V76.3278C299.958 56.2515 292.138 36.9754 278.173 22.6556C271.354 15.5041 263.173 9.81173 254.12 5.91903C245.068 2.02632 235.329 0.0131766 225.486 0L134.635 0C125.772 0.0134131 117.004 1.83303 108.858 5.34938C100.711 8.86573 93.3548 14.0061 87.231 20.4614C74.6677 33.3696 67.635 50.731 67.6459 68.8106V232.203C67.6552 235.401 66.5672 238.504 64.5662 240.986C62.5651 243.469 59.7741 245.178 56.6658 245.824C53.5575 246.47 50.323 246.014 47.5103 244.532C44.6976 243.051 42.4795 240.636 41.2318 237.695C38.66 231.64 34.7251 226.27 29.7384 222.012V222.012C38.5002 214.676 47.1975 205.848 47.1975 190.216C47.1975 174.584 38.4358 165.73 29.6354 158.394C38.1394 151.189 46.3858 142.412 46.3858 127.235C46.3858 112.057 38.1781 103.268 29.6354 96.0752C38.41 88.7397 47.1073 79.9112 47.1073 64.2795C47.1073 48.6478 38.4358 39.8063 29.6354 32.4578C38.1781 25.2522 46.3858 16.4886 46.3858 1.29831H38.6548C38.6548 13.8011 31.916 20.5263 23.5666 27.4463C15.2171 20.5263 8.47829 13.8011 8.47829 1.29831H0.747326C0.747326 16.4886 8.95503 25.2522 17.4977 32.4578C8.69733 39.8063 0 48.6348 0 64.2665C0 79.8982 8.69733 88.7267 17.4591 96.0752C9.01946 103.268 0.747326 112.044 0.747326 127.235C0.747326 142.425 8.95503 151.202 17.4977 158.394C8.69733 165.73 0 174.571 0 190.203C0 205.835 8.69733 214.663 17.4591 222.012C9.01946 229.217 0.747326 237.981 0.747326 253.171H8.47829C8.47829 240.668 15.2042 233.943 23.5537 227.023L24.7648 228.01C28.8355 231.476 32.0549 235.844 34.1709 240.772C36.1171 245.363 39.5789 249.135 43.9695 251.449C48.3602 253.763 53.4097 254.476 58.2623 253.467C63.115 252.459 67.4724 249.791 70.5962 245.916C73.72 242.04 75.4181 237.196 75.4027 232.203V68.8106C75.416 52.7863 81.6606 37.4054 92.7973 25.9663C98.1947 20.2512 104.683 15.6949 111.873 12.5713C119.063 9.44767 126.805 7.82128 134.635 7.78988H225.486C234.298 7.80741 243.015 9.61459 251.118 13.1034C259.221 16.5923 266.542 21.6912 272.645 28.0955C285.192 40.9659 292.221 58.2867 292.217 76.3278V95.6986C292.2 113.526 285.164 130.619 272.654 143.225C260.143 155.831 243.179 162.921 225.486 162.938H176.756C169.322 162.945 162.194 165.924 156.938 171.22C151.681 176.517 148.725 183.699 148.718 191.19V236.137C148.718 245.732 156.449 253.846 165.623 253.846C174.797 253.846 182.541 245.732 182.541 236.137V223.686C182.541 221.004 183.598 218.431 185.481 216.535C187.363 214.638 189.916 213.572 192.578 213.572C195.24 213.572 197.793 214.638 199.676 216.535C201.558 218.431 202.616 221.004 202.616 223.686V237.968C202.616 246.602 209.548 253.885 217.743 253.885C225.937 253.885 232.869 246.602 232.869 237.968V218.701C232.989 214.379 234.778 210.274 237.854 207.26C240.93 204.246 245.052 202.56 249.343 202.56C253.634 202.56 257.756 204.246 260.832 207.26C263.908 210.274 265.696 214.379 265.816 218.701V237.111C265.823 241.368 267.505 245.449 270.492 248.46C273.48 251.47 277.53 253.164 281.755 253.171H300V245.381H281.755C279.579 245.378 277.493 244.505 275.955 242.955C274.416 241.405 273.551 239.303 273.547 237.111V218.701C273.401 212.33 270.787 206.269 266.264 201.816C261.741 197.362 255.667 194.868 249.343 194.868C243.018 194.868 236.945 197.362 232.422 201.816C227.899 206.269 225.284 212.33 225.139 218.701V237.929C225.139 242.265 221.685 246.056 217.743 246.056C213.8 246.056 210.347 242.265 210.347 237.929V223.647C210.347 218.899 208.475 214.345 205.142 210.988C201.81 207.63 197.291 205.744 192.578 205.744C187.866 205.744 183.346 207.63 180.014 210.988C176.682 214.345 174.81 218.899 174.81 223.647V236.098C174.81 241.382 170.519 246.017 165.623 246.017C160.727 246.017 156.449 241.382 156.449 236.098V191.19C156.456 185.765 158.597 180.565 162.404 176.729C166.211 172.893 171.372 170.735 176.756 170.728ZM7.73096 64.2665C7.73096 51.3872 14.8692 44.649 23.5666 37.4953C32.2123 44.649 39.4021 51.3872 39.4021 64.2665C39.4021 77.1458 32.2123 83.884 23.5666 91.0377C14.8692 83.884 7.73096 77.1458 7.73096 64.2665ZM8.47829 127.235C8.47829 114.732 15.2171 108.02 23.5666 101.087C31.916 108.007 38.6548 114.719 38.6548 127.235C38.6548 139.75 31.916 146.463 23.5666 153.396C15.2171 146.45 8.47829 139.737 8.47829 127.235ZM7.73096 190.203C7.73096 177.324 14.8692 170.572 23.5666 163.419C32.2639 170.572 39.4021 177.324 39.4021 190.203C39.4021 203.082 32.2123 209.82 23.5666 216.974C14.8692 209.82 7.73096 203.082 7.73096 190.203Z" fill="#4F2641"/>
<path d="M225.487 144.139C252.339 144.139 272.89 122.067 272.89 95.0755V77.0029C272.942 50.011 252.39 27.9397 225.487 27.9397H134.635C123.7 27.9397 113.212 32.3169 105.48 40.1082C97.7472 47.8996 93.4031 58.467 93.4031 69.4857V253.846H101.134V69.4857C101.134 60.533 104.664 51.947 110.946 45.6165C117.229 39.286 125.75 35.7296 134.635 35.7296H225.487C248.074 35.7296 265.159 54.2435 265.159 77.0029V95.0755C265.159 117.835 248.074 136.349 225.487 136.349H176.756C147.12 136.349 120.371 161.965 120.371 191.865V253.846H128.102V191.865C128.102 166.262 151.295 144.139 176.756 144.139H225.487Z" fill="#4F2641"/>
</g>
<defs>
<clipPath id="clip0_326_3332">
<rect width="300" height="253.846" fill="white"/>
</clipPath>
</defs>
</svg>
